<svg width="42" height="16" viewBox="0 0 42 16" fill="none" xmlns="http://www.w3.org/2000/svg">
<path fill-rule="evenodd" clip-rule="evenodd" d="M8.00092 1.99897C8.00092 2.25897 7.90092 2.50897 7.71092 2.70897L3.41092 6.99897L41.0009 6.99897C41.5509 6.99897 42.0009 7.44896 42.0009 7.99896C42.0009 8.54896 41.5509 8.99896 41.0009 8.99896L3.41092 8.99896L7.71092 13.289C8.10092 13.679 8.10092 14.319 7.71092 14.709C7.32092 15.099 6.68092 15.099 6.29092 14.709L0.290918 8.70896C0.200918 8.61896 0.130918 8.50896 0.080918 8.38896C0.060918 8.33896 0.040918 8.29896 0.040918 8.24896C-0.00908203 8.08896 -0.00908203 7.90896 0.040918 7.74896C0.040918 7.69896 0.060918 7.65897 0.080918 7.60896C0.130918 7.48897 0.200918 7.37896 0.290918 7.28896L6.29092 1.28897C6.68092 0.898965 7.32092 0.898965 7.71092 1.28897C7.90092 1.48897 8.00092 1.73897 8.00092 1.99897Z" fill="#313037"/>
</svg>
