<svg width="14" height="14" viewBox="0 0 14 14" fill="var( --grey-bg-color)" xmlns="http://www.w3.org/2000/svg">
<path fill-rule="evenodd" clip-rule="evenodd" d="M10.9325 13.5C10.8313 13.5 10.7295 13.4764 10.636 13.4287L7.00044 11.5662L3.36365 13.4287C3.14984 13.539 2.88956 13.5205 2.69293 13.3816C2.49757 13.2428 2.39957 13.0079 2.4403 12.7754L3.13456 8.83276L0.192678 6.04172C0.0189521 5.87685 -0.043411 5.63078 0.0310429 5.4064C0.106133 5.18203 0.305313 5.0184 0.544584 4.98431L4.61155 4.4054L6.42963 0.817264C6.64408 0.394548 7.35616 0.394548 7.57062 0.817264L9.38869 4.4054L13.4557 4.98431C13.6956 5.0184 13.8947 5.18203 13.9692 5.4064C14.0437 5.63078 13.9813 5.87685 13.8076 6.04172L10.8657 8.83276L11.5599 12.7754C11.6007 13.0079 11.5027 13.2428 11.3067 13.3816C11.1953 13.4603 11.0642 13.5 10.9325 13.5Z"/>
</svg>
